HIERARCHY
ROOT Hips
{
     OFFSET 20.40260 95.22540 -42.13480
     CHANNELS 6 Xposition Yposition Zposition Zrotation Xrotation Yrotation
     JOINT Spine
     {
          OFFSET 0.00000 11.89050 0.00000
          CHANNELS 3 Zrotation Xrotation Yrotation
          JOINT Spine1
          {
               OFFSET 0.00000 25.65740 0.12766
               CHANNELS 3 Zrotation Xrotation Yrotation
               JOINT HEad
               {
                    OFFSET 0.00000 8.73416 0.01134
                    CHANNELS 3 Zrotation Xrotation Yrotation
                    End Site
                    {
                         OFFSET -0.29000 12.77420 2.51395
                    }
               }
               JOINT LeftShoulder1
               {
                    OFFSET 8.99000 -0.36225 -0.22000
                    CHANNELS 3 Zrotation Xrotation Yrotation
                    JOINT LeftArm
                    {
                         OFFSET 10.28270 -0.00338 0.32212
                         CHANNELS 3 Zrotation Xrotation Yrotation
                         JOINT LeftForeArm
                         {
                              OFFSET 32.76690 0.09914 -1.42434
                              CHANNELS 3 Zrotation Xrotation Yrotation
                              JOINT LeftHand
                              {
                                   OFFSET 27.56430 0.08536 1.02216
                                   CHANNELS 3 Zrotation Xrotation Yrotation
                                   End Site
                                   {
                                        OFFSET 16.74430 -0.60000 1.50291
                                   }
                              }
                         }
                    }
               }
               JOINT RightShoulder
               {
                    OFFSET -8.99000 -0.36225 -0.22000
                    CHANNELS 3 Zrotation Xrotation Yrotation
                    JOINT RightArm
                    {
                         OFFSET -10.28270 -0.00338 0.32212
                         CHANNELS 3 Zrotation Xrotation Yrotation
                         JOINT RightForeArm
                         {
                              OFFSET -32.89710 0.09914 -1.42434
                              CHANNELS 3 Zrotation Xrotation Yrotation
                              JOINT RightHand
                              {
                                   OFFSET -27.49210 0.08536 1.02216
                                   CHANNELS 3 Zrotation Xrotation Yrotation
                                   End Site
                                   {
                                        OFFSET -16.63120 -0.60000 1.50291
                                   }
                              }
                         }
                    }
               }
          }
     }
     JOINT LeftUpLeg
     {
          OFFSET 8.94580 -8.66707 0.10165
          CHANNELS 3 Zrotation Xrotation Yrotation
          JOINT LeftLeg
          {
               OFFSET 0.00000 -44.42270 1.37270
               CHANNELS 3 Zrotation Xrotation Yrotation
               JOINT LeftFoot
               {
                    OFFSET -0.25355 -42.09240 -1.46059
                    CHANNELS 3 Zrotation Xrotation Yrotation
                    JOINT LeftToes
                    {
                         OFFSET -0.04000 -4.41509 8.49910
                         CHANNELS 3 Zrotation Xrotation Yrotation
                         End Site
                         {
                              OFFSET 0.08000 -0.04745 9.77979
                         }
                    }
               }
          }
     }
     JOINT RightUpLeg
     {
          OFFSET -8.94580 -8.66707 0.10165
          CHANNELS 3 Zrotation Xrotation Yrotation
          JOINT RightLeg
          {
               OFFSET 0.00000 -44.42270 1.37270
               CHANNELS 3 Zrotation Xrotation Yrotation
               JOINT RightFoot
               {
                    OFFSET 0.25355 -42.09240 -1.46059
                    CHANNELS 3 Zrotation Xrotation Yrotation
                    JOINT RightToes
                    {
                         OFFSET 0.04000 -4.41509 8.49910
                         CHANNELS 3 Zrotation Xrotation Yrotation
                         End Site
                         {
                              OFFSET -0.08000 -0.13745 9.77979
                         }
                    }
               }
          }
     }
}
MOTION
Frames: 7
Frame Time: 0.01667
20.40260 95.22540 -42.13480 -7.45581 -10.33360 -27.47680 4.85378 5.90814 -0.86545 1.72935 12.47260 -0.73030 -8.95541 15.33430 9.53364 0.00000 0.00000 0.00000 -85.22640 -37.86570 -61.95070 11.64390 29.31270 -88.96940 34.87790 12.86030 14.13070 8.57303 0.86872 4.33846 60.63020 -5.69903 77.60850 -1.67378 21.93470 77.16670 -4.37698 9.40482 11.37080 20.58390 -12.34150 4.70101 -6.72604 21.36920 15.09160 -4.84395 5.32427 0.50027 -1.68757 -2.68609 0.68620 -2.83747 -4.90280 -5.72621 3.43376 42.87970 -7.91299 3.59083 -31.14640 0.44117 5.21967 20.92780 -10.14080 
20.43670 95.28070 -41.98250 -7.47960 -10.12660 -27.40450 4.84740 5.90770 -0.89493 1.74921 12.47240 -0.80889 -8.93843 15.14960 9.55109 0.00000 0.00000 0.00000 -85.32750 -37.97890 -62.03930 11.63530 29.40850 -89.13930 35.07450 12.89800 14.19540 8.50350 0.87252 4.40232 60.79310 -5.67431 77.70610 -1.71127 21.96770 77.31930 -4.34521 9.41040 11.33150 20.69950 -12.83940 4.40158 -6.85432 21.92010 15.45310 -5.08398 5.25603 0.52486 -1.59709 -2.69877 1.04139 -2.78800 -4.85918 -5.76641 3.41754 42.63100 -7.91058 3.71737 -31.18230 0.46953 5.30859 21.31870 -9.72673 
20.49520 95.34400 -41.79500 -7.47794 -9.88665 -27.36390 4.83257 5.87342 -0.87770 1.74326 12.40430 -0.79614 -8.91374 15.05310 9.49494 0.00000 0.00000 0.00000 -85.35110 -37.93210 -62.03020 11.66680 29.47760 -89.28370 35.28580 12.92850 14.23140 8.59411 0.87863 4.41187 60.84030 -5.75461 77.67970 -1.65446 22.05100 77.47410 -4.35289 9.40987 11.31520 20.79730 -13.35980 4.17539 -6.92956 22.48330 15.65770 -5.41783 5.14168 0.55778 -1.77176 -3.12444 1.45099 -2.78616 -4.83969 -5.79003 3.44039 42.35070 -7.91451 3.75059 -31.13020 0.47519 5.33036 21.51520 -9.27563 
20.58100 95.41550 -41.57340 -7.45173 -9.64043 -27.38180 4.81610 5.83006 -0.82299 1.71568 12.31800 -0.70756 -8.92680 15.07070 9.36451 0.00000 0.00000 0.00000 -85.40400 -37.80270 -61.99730 11.75160 29.54020 -89.43960 35.43700 12.96000 14.28800 8.73211 0.88155 4.37314 60.83480 -5.88085 77.60250 -1.52118 22.13710 77.57750 -4.35986 9.40887 11.31690 20.86610 -13.83970 4.00319 -6.94388 22.98440 15.69560 -5.79839 4.89741 0.58949 -2.18693 -3.84170 1.69142 -2.83944 -4.82310 -5.77470 3.49387 42.03220 -7.88821 3.71465 -30.96560 0.46270 5.25785 21.39050 -8.89604 
20.69530 95.49850 -41.31580 -7.41424 -9.40769 -27.45390 4.79498 5.79568 -0.74288 1.67855 12.24900 -0.56885 -8.99345 15.20350 9.17560 0.00000 0.00000 0.00000 -85.51830 -37.62300 -61.97340 11.88910 29.59940 -89.61710 35.51420 13.00590 14.41370 8.85119 0.87835 4.29332 60.82390 -6.01708 77.52050 -1.33576 22.19500 77.59890 -4.31018 9.41521 11.32970 20.89460 -14.23350 3.82596 -6.87663 23.33040 15.55260 -6.12993 4.42271 0.60347 -2.72087 -4.57224 1.54641 -2.92314 -4.77446 -5.74616 3.50658 41.66010 -7.77633 3.64924 -30.73220 0.44212 5.13740 21.06720 -8.65147 
20.83820 95.59310 -41.01760 -7.38204 -9.19750 -27.55960 4.76771 5.77493 -0.65412 1.63842 12.20770 -0.41491 -9.09107 15.41720 8.98082 0.00000 0.00000 0.00000 -85.67770 -37.42800 -61.94240 12.10790 29.66600 -89.85770 35.53860 13.08640 14.66750 8.95196 0.87160 4.19385 60.78130 -6.14644 77.43930 -1.14147 22.21320 77.53730 -4.21294 9.42723 11.36810 20.88330 -14.50530 3.55341 -6.72911 23.39550 15.23730 -6.29491 3.71512 0.58653 -3.30226 -5.19854 1.02384 -3.00510 -4.66981 -5.73471 3.41082 41.23960 -7.54524 3.59379 -30.52450 0.42465 5.06188 20.84080 -8.57416 
21.00870 95.69390 -40.67240 -7.36395 -9.01091 -27.69670 4.74321 5.76216 -0.56641 1.59818 12.18570 -0.26443 -9.17560 15.65540 8.82716 0.00000 0.00000 0.00000 -85.87290 -37.26910 -61.86340 12.45000 29.76410 -90.23100 35.54560 13.21630 15.08680 9.04646 0.86563 4.10481 60.65870 -6.26738 77.33270 -0.97008 22.20250 77.42010 -4.13938 9.43514 11.43830 20.84840 -14.61800 3.13668 -6.52079 23.05160 14.76940 -6.26672 2.89783 0.54424 -3.89018 -5.77924 0.40741 -3.07877 -4.50955 -5.71353 3.21437 40.80070 -7.21303 3.63417 -30.42130 0.43024 5.09603 20.92570 -8.67364 
